:SAMPLES-PER-SECOND 30
:FULLY-SPECIFIED
:DEGREES
227
root  -0.891829 18.6302 44.8359 -121.575 10.8396 -175.022
RightUpLeg  -39.5097 0.380662 5.97337
RightLeg  92.5943 16.9834 -11.2679
RightFoot  -21.488 0.632609 7.78648
RightToes  -5.82073e-011 -3.18055e-015 -2.98177e-016
Spine  33.4821 -0.788459 7.47833
Spine1  -8.56934 4.1743 -32.938
HEad  -22.347 -9.07037 0.772467
LeftShoulder1  -3.88251e-019 9.70628e-020 -3.87848e-018
LeftArm  -1.84535 -15.2319 -70.8907
LeftForeArm  27.1635 -2.31419 -7.19912
LeftHand  -14.0317 -11.7353 81.1737
RightShoulder  3.50158 7.85853 17.8477
RightArm  3.37244 19.8849 59.6419
RightForeArm  -5.11683 9.41907 -4.44578
RightHand  -9.52629 8.07473 -71.0594
LeftUpLeg  -72.4782 7.07288 -8.51321
LeftLeg  124.143 -21.7211 11.5966
LeftFoot  -12.956 -0.012248 -18.1653
LeftToes  -2.27483e-011 -5.53417e-011 9.36564e-012
228
root  -0.938385 18.6464 44.146 -121.187 11.0323 -177.559
RightUpLeg  -38.4937 -2.28533 3.90973
RightLeg  90.266 16.5639 -11.3361
RightFoot  -21.134 0.590423 7.54452
RightToes  -5.82073e-011 -3.18055e-015 -2.98177e-016
Spine  33.471 -0.980407 5.62273
Spine1  -9.56673 2.77431 -28.801
HEad  -22.4995 -7.82953 1.02925
LeftShoulder1  -3.88251e-019 9.70628e-020 -3.87848e-018
LeftArm  -7.73738 -12.946 -69.8728
LeftForeArm  30.3081 -1.72582 -8.11073
LeftHand  -14.012 -11.357 82.4031
RightShoulder  3.8532 7.94136 19.9726
RightArm  5.19301 18.8212 59.3064
RightForeArm  -2.5463 11.4427 -3.91429
RightHand  -10.1936 8.63971 -72.5386
LeftUpLeg  -71.4512 4.91244 -10.993
LeftLeg  121.506 -21.8827 12.8649
LeftFoot  -11.063 0.312364 -19.0055
LeftToes  -2.27483e-011 -5.53417e-011 9.36564e-012
229
root  -0.956393 18.6444 43.4287 -120.656 10.5962 179.355
RightUpLeg  -37.3053 -5.56337 2.13014
RightLeg  87.6196 16.08 -11.3035
RightFoot  -20.7249 0.576021 7.75675
RightToes  -5.82073e-011 -3.18055e-015 -2.98177e-016
Spine  32.1178 -1.97738 4.01268
Spine1  -8.6834 0.970874 -23.9852
HEad  -23.517 -5.27792 2.0381
LeftShoulder1  -3.88251e-019 9.70628e-020 -3.87848e-018
LeftArm  -8.57515 -8.9467 -67.0338
LeftForeArm  28.4848 -3.26886 -9.28367
LeftHand  -13.5513 -11.3027 80.6561
RightShoulder  3.96976 7.97428 20.6555
RightArm  6.42959 18.4291 61.3217
RightForeArm  0.506854 12.3935 -4.10603
RightHand  -10.7906 9.18893 -73.5693
LeftUpLeg  -70.2656 2.16616 -13.2161
LeftLeg  118.523 -22.0676 14.4983
LeftFoot  -10.2444 0.503453 -21.1668
LeftToes  -2.27483e-011 -5.53417e-011 9.36564e-012
230
root  -1.03222 18.6877 42.6593 -121.246 9.42325 177.169
RightUpLeg  -34.3555 -8.44681 1.04213
RightLeg  84.5448 15.54 -10.6349
RightFoot  -20.0699 0.618257 9.2838
RightToes  -5.82073e-011 -3.18055e-015 -2.98177e-016
Spine  31.8079 -2.87154 3.95504
Spine1  -8.00223 -0.329941 -19.3903
HEad  -23.5879 -3.28957 3.70933
LeftShoulder1  -3.88251e-019 9.70628e-020 -3.87848e-018
LeftArm  -5.85547 -1.26773 -67.6833
LeftForeArm  24.1902 -9.99576 -6.7583
LeftHand  -12.6093 -11.3987 76.2558
RightShoulder  4.17188 8.08287 21.7297
RightArm  7.61047 17.7927 62.2271
RightForeArm  3.9033 13.1302 -4.29322
RightHand  -11.6042 9.87705 -75.0608
LeftUpLeg  -67.1919 0.174965 -14.3533
LeftLeg  115.124 -22.1548 16.4628
LeftFoot  -9.94956 0.566356 -21.3852
LeftToes  -2.27483e-011 -5.53417e-011 9.36564e-012
231
root  -1.2254 18.8203 41.8109 -123.389 7.66306 175.747
RightUpLeg  -29.6777 -10.6531 -0.0445377
RightLeg  81.5875 15.1642 -8.75808
RightFoot  -17.8782 0.503986 11.0234
RightToes  -5.82073e-011 -3.18055e-015 -2.98177e-016
Spine  33.8264 -3.42214 5.2727
Spine1  -8.82193 -0.960535 -15.0995
HEad  -22.5226 -2.75958 5.22832
LeftShoulder1  -3.88251e-019 9.70628e-020 -3.87848e-018
LeftArm  -4.37803 6.39319 -69.8889
LeftForeArm  18.7364 -17.6936 -3.41304
LeftHand  -11.9688 -11.6005 72.7061
RightShoulder  4.48615 8.13154 23.61
RightArm  9.70656 16.7626 60.3917
RightForeArm  6.40052 14.2288 -4.12269
RightHand  -12.4923 10.5705 -76.7356
LeftUpLeg  -62.1502 -0.830645 -14.7736
LeftLeg  111.549 -21.9491 18.3655
LeftFoot  -9.49075 0.617715 -20.2344
LeftToes  -2.27483e-011 -5.53417e-011 9.36564e-012
232
root  -1.43888 18.9342 41.0554 -124.348 6.57957 175.318
RightUpLeg  -27.652 -10.7335 -0.926102
RightLeg  80.4997 15.2365 -6.34954
RightFoot  -13.7969 0.102876 10.9906
RightToes  -5.82073e-011 -3.18055e-015 -2.98177e-016
Spine  34.7407 -3.50378 6.29264
Spine1  -9.21979 -1.03847 -11.1496
HEad  -22.1917 -1.82537 6.12431
LeftShoulder1  -3.88251e-019 9.70628e-020 -3.87848e-018
LeftArm  2.15015 12.0346 -71.4023
LeftForeArm  3.93725 -24.9324 2.11138
LeftHand  -12.2752 -12.1704 72.211
RightShoulder  4.57019 8.07835 24.2401
RightArm  10.7024 16.4721 59.7611
RightForeArm  9.04752 14.3253 -3.85026
RightHand  -12.9616 10.9395 -77.5381
LeftUpLeg  -58.7909 -0.910875 -15.0456
LeftLeg  108.796 -21.5583 19.6382
LeftFoot  -9.25793 0.642897 -19.7396
LeftToes  -2.27483e-011 -5.53417e-011 9.36564e-012
233
root  -1.61407 18.99 40.4924 -123.295 6.32462 175.554
RightUpLeg  -29.6695 -9.30818 -1.25785
RightLeg  82.1189 15.558 -4.27512
RightFoot  -10.3031 -0.205647 9.15079
RightToes  -5.82073e-011 -3.18055e-015 -2.98177e-016
Spine  33.7596 -2.7274 6.52364
Spine1  -9.10369 -0.552136 -7.47756
HEad  -22.7359 -0.832887 6.49136
LeftShoulder1  -3.88251e-019 9.70628e-020 -3.87848e-018
LeftArm  1.85199 15.1319 -72.9895
LeftForeArm  -2.85559 -30.1488 6.64003
LeftHand  -13.0733 -13.0039 73.0868
RightShoulder  4.56592 8.05651 24.2584
RightArm  10.5831 16.688 59.7873
RightForeArm  11.8346 13.9471 -3.69815
RightHand  -12.825 10.8507 -77.2386
LeftUpLeg  -58.2414 -1.40393 -15.2621
LeftLeg  106.961 -21.2692 20.5395
LeftFoot  -9.35139 0.634666 -19.9902
LeftToes  -2.27483e-011 -5.53417e-011 9.36564e-012
234
root  -1.78009 19.0567 40.0195 -122.174 6.44804 176.741
RightUpLeg  -32.935 -7.42765 -1.15404
RightLeg  85.4707 15.7932 -3.52213
RightFoot  -9.50782 -0.200178 6.83706
RightToes  -5.82073e-011 -3.18055e-015 -2.98177e-016
Spine  32.8963 -1.44595 7.2276
Spine1  -8.89523 0.709454 -5.07622
HEad  -23.5852 -0.8691 6.95566
LeftShoulder1  -3.88251e-019 9.70628e-020 -3.87848e-018
LeftArm  -2.67052 14.5483 -74.4655
LeftForeArm  1.38231 -33.5409 7.50187
LeftHand  -13.1588 -13.3716 72.3152
RightShoulder  4.45266 8.00208 23.6594
RightArm  10.156 16.046 59.1133
RightForeArm  13.1487 14.3558 -4.50991
RightHand  -12.4657 10.5528 -76.6761
LeftUpLeg  -57.861 -1.43027 -14.9803
LeftLeg  105.447 -20.9129 21.0897
LeftFoot  -9.64381 0.585271 -20.0889
LeftToes  -2.27483e-011 -5.53417e-011 9.36564e-012
